<mxfile host="drawio-plugin" modified="2022-09-02T11:25:17.197Z" agent="5.0 (X11; Linux x86_64) AppleWebKit/537.36 (KHTML, like Gecko) Chrome/98.0.4758.102 Safari/537.36" etag="BatjGmGaJ0K2HbM4J-3t" version="15.5.4" type="embed" pages="2"><diagram id="xSaIx6schcwp7hAi1NtG" name="Problem"><mxGraphModel dx="898" dy="843" grid="1" gridSize="10" guides="1" tooltips="1" connect="1" arrows="1" fold="1" page="1" pageScale="1" pageWidth="850" pageHeight="1100" math="0" shadow="0"><root><mxCell id="0"/><mxCell id="1" parent="0"/><mxCell id="oQWmL1QjA4maQlKl3V2a-4" value="&lt;h1&gt;&lt;span style=&quot;color: rgb(204 , 0 , 0) ; font-family: &amp;#34;radio canada&amp;#34; ; font-size: 20px ; text-align: center&quot;&gt;https://leetcode.com/problems/two-sum/&lt;/span&gt;&lt;br&gt;&lt;/h1&gt;&lt;p style=&quot;box-sizing: border-box ; font-size: 14px ; margin-top: 0px ; margin-bottom: 1em ; color: rgb(38 , 50 , 56) ; font-family: , &amp;#34;blinkmacsystemfont&amp;#34; , &amp;#34;segoe ui&amp;#34; , &amp;#34;pingfang sc&amp;#34; , &amp;#34;hiragino sans gb&amp;#34; , &amp;#34;microsoft yahei&amp;#34; , &amp;#34;helvetica neue&amp;#34; , &amp;#34;helvetica&amp;#34; , &amp;#34;arial&amp;#34; , sans-serif , &amp;#34;apple color emoji&amp;#34; , &amp;#34;segoe ui emoji&amp;#34; , &amp;#34;segoe ui symbol&amp;#34; ; background-color: rgb(255 , 255 , 255)&quot;&gt;Given an array of integers&amp;nbsp;&lt;code style=&quot;box-sizing: border-box ; font-size: 13px ; color: rgb(84 , 110 , 122) ; background-color: rgb(247 , 249 , 250) ; padding: 2px 4px ; border-radius: 3px&quot;&gt;nums&lt;/code&gt;&amp;nbsp;and an integer&amp;nbsp;&lt;code style=&quot;box-sizing: border-box ; font-size: 13px ; color: rgb(84 , 110 , 122) ; background-color: rgb(247 , 249 , 250) ; padding: 2px 4px ; border-radius: 3px&quot;&gt;target&lt;/code&gt;, return&amp;nbsp;&lt;em style=&quot;box-sizing: border-box&quot;&gt;indices of the two numbers such that they add up to&amp;nbsp;&lt;code style=&quot;box-sizing: border-box ; font-size: 13px ; color: rgb(84 , 110 , 122) ; background-color: rgb(247 , 249 , 250) ; padding: 2px 4px ; border-radius: 3px&quot;&gt;target&lt;/code&gt;&lt;/em&gt;.&lt;/p&gt;&lt;p style=&quot;box-sizing: border-box ; font-size: 14px ; margin-top: 0px ; margin-bottom: 1em ; color: rgb(38 , 50 , 56) ; font-family: , &amp;#34;blinkmacsystemfont&amp;#34; , &amp;#34;segoe ui&amp;#34; , &amp;#34;pingfang sc&amp;#34; , &amp;#34;hiragino sans gb&amp;#34; , &amp;#34;microsoft yahei&amp;#34; , &amp;#34;helvetica neue&amp;#34; , &amp;#34;helvetica&amp;#34; , &amp;#34;arial&amp;#34; , sans-serif , &amp;#34;apple color emoji&amp;#34; , &amp;#34;segoe ui emoji&amp;#34; , &amp;#34;segoe ui symbol&amp;#34; ; background-color: rgb(255 , 255 , 255)&quot;&gt;You may assume that each input would have&amp;nbsp;&lt;span style=&quot;box-sizing: border-box ; font-weight: bolder&quot;&gt;&lt;em style=&quot;box-sizing: border-box&quot;&gt;exactly&lt;/em&gt;&amp;nbsp;one solution&lt;/span&gt;, and you may not use the&amp;nbsp;&lt;em style=&quot;box-sizing: border-box&quot;&gt;same&lt;/em&gt;&amp;nbsp;element twice.&lt;/p&gt;&lt;p style=&quot;box-sizing: border-box ; font-size: 14px ; margin-top: 0px ; margin-bottom: 1em ; color: rgb(38 , 50 , 56) ; font-family: , &amp;#34;blinkmacsystemfont&amp;#34; , &amp;#34;segoe ui&amp;#34; , &amp;#34;pingfang sc&amp;#34; , &amp;#34;hiragino sans gb&amp;#34; , &amp;#34;microsoft yahei&amp;#34; , &amp;#34;helvetica neue&amp;#34; , &amp;#34;helvetica&amp;#34; , &amp;#34;arial&amp;#34; , sans-serif , &amp;#34;apple color emoji&amp;#34; , &amp;#34;segoe ui emoji&amp;#34; , &amp;#34;segoe ui symbol&amp;#34; ; background-color: rgb(255 , 255 , 255)&quot;&gt;You can return the answer in any order.&lt;/p&gt;&lt;p style=&quot;box-sizing: border-box ; font-size: 14px ; margin-top: 0px ; margin-bottom: 1em ; color: rgb(38 , 50 , 56) ; font-family: , &amp;#34;blinkmacsystemfont&amp;#34; , &amp;#34;segoe ui&amp;#34; , &amp;#34;pingfang sc&amp;#34; , &amp;#34;hiragino sans gb&amp;#34; , &amp;#34;microsoft yahei&amp;#34; , &amp;#34;helvetica neue&amp;#34; , &amp;#34;helvetica&amp;#34; , &amp;#34;arial&amp;#34; , sans-serif , &amp;#34;apple color emoji&amp;#34; , &amp;#34;segoe ui emoji&amp;#34; , &amp;#34;segoe ui symbol&amp;#34; ; background-color: rgb(255 , 255 , 255)&quot;&gt;&amp;nbsp;&lt;/p&gt;&lt;p style=&quot;box-sizing: border-box ; font-size: 14px ; margin-top: 0px ; margin-bottom: 1em ; color: rgb(38 , 50 , 56) ; font-family: , &amp;#34;blinkmacsystemfont&amp;#34; , &amp;#34;segoe ui&amp;#34; , &amp;#34;pingfang sc&amp;#34; , &amp;#34;hiragino sans gb&amp;#34; , &amp;#34;microsoft yahei&amp;#34; , &amp;#34;helvetica neue&amp;#34; , &amp;#34;helvetica&amp;#34; , &amp;#34;arial&amp;#34; , sans-serif , &amp;#34;apple color emoji&amp;#34; , &amp;#34;segoe ui emoji&amp;#34; , &amp;#34;segoe ui symbol&amp;#34; ; background-color: rgb(255 , 255 , 255)&quot;&gt;&lt;span style=&quot;box-sizing: border-box ; font-weight: bolder&quot;&gt;Example 1:&lt;/span&gt;&lt;/p&gt;&lt;pre style=&quot;box-sizing: border-box ; font-family: , &amp;#34;consolas&amp;#34; , &amp;#34;liberation mono&amp;#34; , &amp;#34;menlo&amp;#34; , &amp;#34;courier&amp;#34; , monospace ; font-size: 13px ; margin-top: 0px ; margin-bottom: 1em ; overflow: auto ; background: rgb(247 , 249 , 250) ; padding: 10px 15px ; color: rgb(38 , 50 , 56) ; line-height: 1.6 ; border-radius: 3px&quot;&gt;&lt;span style=&quot;box-sizing: border-box ; font-weight: bolder&quot;&gt;Input:&lt;/span&gt; nums = [2,7,11,15], target = 9&lt;br&gt;&lt;span style=&quot;box-sizing: border-box ; font-weight: bolder&quot;&gt;Output:&lt;/span&gt; [0,1]&lt;br&gt;&lt;span style=&quot;box-sizing: border-box ; font-weight: bolder&quot;&gt;Explanation:&lt;/span&gt; Because nums[0] + nums[1] == 9, we return [0, 1].&lt;br&gt;&lt;/pre&gt;&lt;p style=&quot;box-sizing: border-box ; font-size: 14px ; margin-top: 0px ; margin-bottom: 1em ; color: rgb(38 , 50 , 56) ; font-family: , &amp;#34;blinkmacsystemfont&amp;#34; , &amp;#34;segoe ui&amp;#34; , &amp;#34;pingfang sc&amp;#34; , &amp;#34;hiragino sans gb&amp;#34; , &amp;#34;microsoft yahei&amp;#34; , &amp;#34;helvetica neue&amp;#34; , &amp;#34;helvetica&amp;#34; , &amp;#34;arial&amp;#34; , sans-serif , &amp;#34;apple color emoji&amp;#34; , &amp;#34;segoe ui emoji&amp;#34; , &amp;#34;segoe ui symbol&amp;#34; ; background-color: rgb(255 , 255 , 255)&quot;&gt;&lt;span style=&quot;box-sizing: border-box ; font-weight: bolder&quot;&gt;Example 2:&lt;/span&gt;&lt;/p&gt;&lt;pre style=&quot;box-sizing: border-box ; font-family: , &amp;#34;consolas&amp;#34; , &amp;#34;liberation mono&amp;#34; , &amp;#34;menlo&amp;#34; , &amp;#34;courier&amp;#34; , monospace ; font-size: 13px ; margin-top: 0px ; margin-bottom: 1em ; overflow: auto ; background: rgb(247 , 249 , 250) ; padding: 10px 15px ; color: rgb(38 , 50 , 56) ; line-height: 1.6 ; border-radius: 3px&quot;&gt;&lt;span style=&quot;box-sizing: border-box ; font-weight: bolder&quot;&gt;Input:&lt;/span&gt; nums = [3,2,4], target = 6&lt;br&gt;&lt;span style=&quot;box-sizing: border-box ; font-weight: bolder&quot;&gt;Output:&lt;/span&gt; [1,2]&lt;br&gt;&lt;/pre&gt;&lt;p style=&quot;box-sizing: border-box ; font-size: 14px ; margin-top: 0px ; margin-bottom: 1em ; color: rgb(38 , 50 , 56) ; font-family: , &amp;#34;blinkmacsystemfont&amp;#34; , &amp;#34;segoe ui&amp;#34; , &amp;#34;pingfang sc&amp;#34; , &amp;#34;hiragino sans gb&amp;#34; , &amp;#34;microsoft yahei&amp;#34; , &amp;#34;helvetica neue&amp;#34; , &amp;#34;helvetica&amp;#34; , &amp;#34;arial&amp;#34; , sans-serif , &amp;#34;apple color emoji&amp;#34; , &amp;#34;segoe ui emoji&amp;#34; , &amp;#34;segoe ui symbol&amp;#34; ; background-color: rgb(255 , 255 , 255)&quot;&gt;&lt;span style=&quot;box-sizing: border-box ; font-weight: bolder&quot;&gt;Example 3:&lt;/span&gt;&lt;/p&gt;&lt;pre style=&quot;box-sizing: border-box ; font-family: , &amp;#34;consolas&amp;#34; , &amp;#34;liberation mono&amp;#34; , &amp;#34;menlo&amp;#34; , &amp;#34;courier&amp;#34; , monospace ; font-size: 13px ; margin-top: 0px ; margin-bottom: 1em ; overflow: auto ; background: rgb(247 , 249 , 250) ; padding: 10px 15px ; color: rgb(38 , 50 , 56) ; line-height: 1.6 ; border-radius: 3px&quot;&gt;&lt;span style=&quot;box-sizing: border-box ; font-weight: bolder&quot;&gt;Input:&lt;/span&gt; nums = [3,3], target = 6&lt;br&gt;&lt;span style=&quot;box-sizing: border-box ; font-weight: bolder&quot;&gt;Output:&lt;/span&gt; [0,1]&lt;br&gt;&lt;/pre&gt;&lt;p style=&quot;box-sizing: border-box ; font-size: 14px ; margin-top: 0px ; margin-bottom: 1em ; color: rgb(38 , 50 , 56) ; font-family: , &amp;#34;blinkmacsystemfont&amp;#34; , &amp;#34;segoe ui&amp;#34; , &amp;#34;pingfang sc&amp;#34; , &amp;#34;hiragino sans gb&amp;#34; , &amp;#34;microsoft yahei&amp;#34; , &amp;#34;helvetica neue&amp;#34; , &amp;#34;helvetica&amp;#34; , &amp;#34;arial&amp;#34; , sans-serif , &amp;#34;apple color emoji&amp;#34; , &amp;#34;segoe ui emoji&amp;#34; , &amp;#34;segoe ui symbol&amp;#34; ; background-color: rgb(255 , 255 , 255)&quot;&gt;&amp;nbsp;&lt;/p&gt;&lt;p style=&quot;box-sizing: border-box ; font-size: 14px ; margin-top: 0px ; margin-bottom: 1em ; color: rgb(38 , 50 , 56) ; font-family: , &amp;#34;blinkmacsystemfont&amp;#34; , &amp;#34;segoe ui&amp;#34; , &amp;#34;pingfang sc&amp;#34; , &amp;#34;hiragino sans gb&amp;#34; , &amp;#34;microsoft yahei&amp;#34; , &amp;#34;helvetica neue&amp;#34; , &amp;#34;helvetica&amp;#34; , &amp;#34;arial&amp;#34; , sans-serif , &amp;#34;apple color emoji&amp;#34; , &amp;#34;segoe ui emoji&amp;#34; , &amp;#34;segoe ui symbol&amp;#34; ; background-color: rgb(255 , 255 , 255)&quot;&gt;&lt;span style=&quot;box-sizing: border-box ; font-weight: bolder&quot;&gt;Constraints:&lt;/span&gt;&lt;/p&gt;&lt;ul style=&quot;box-sizing: border-box ; margin-top: 0px ; margin-bottom: 1em ; color: rgb(38 , 50 , 56) ; font-family: , &amp;#34;blinkmacsystemfont&amp;#34; , &amp;#34;segoe ui&amp;#34; , &amp;#34;pingfang sc&amp;#34; , &amp;#34;hiragino sans gb&amp;#34; , &amp;#34;microsoft yahei&amp;#34; , &amp;#34;helvetica neue&amp;#34; , &amp;#34;helvetica&amp;#34; , &amp;#34;arial&amp;#34; , sans-serif , &amp;#34;apple color emoji&amp;#34; , &amp;#34;segoe ui emoji&amp;#34; , &amp;#34;segoe ui symbol&amp;#34; ; font-size: 14px ; background-color: rgb(255 , 255 , 255)&quot;&gt;&lt;li style=&quot;box-sizing: border-box&quot;&gt;&lt;code style=&quot;box-sizing: border-box ; font-size: 13px ; color: rgb(84 , 110 , 122) ; background-color: rgb(247 , 249 , 250) ; padding: 2px 4px ; border-radius: 3px&quot;&gt;2 &amp;lt;= nums.length &amp;lt;= 10&lt;span style=&quot;box-sizing: border-box ; font-size: 9.75px ; line-height: 0 ; position: relative ; vertical-align: baseline ; top: -0.5em&quot;&gt;4&lt;/span&gt;&lt;/code&gt;&lt;/li&gt;&lt;li style=&quot;box-sizing: border-box&quot;&gt;&lt;code style=&quot;box-sizing: border-box ; font-size: 13px ; color: rgb(84 , 110 , 122) ; background-color: rgb(247 , 249 , 250) ; padding: 2px 4px ; border-radius: 3px&quot;&gt;-10&lt;span style=&quot;box-sizing: border-box ; font-size: 9.75px ; line-height: 0 ; position: relative ; vertical-align: baseline ; top: -0.5em&quot;&gt;9&lt;/span&gt;&amp;nbsp;&amp;lt;= nums[i] &amp;lt;= 10&lt;span style=&quot;box-sizing: border-box ; font-size: 9.75px ; line-height: 0 ; position: relative ; vertical-align: baseline ; top: -0.5em&quot;&gt;9&lt;/span&gt;&lt;/code&gt;&lt;/li&gt;&lt;li style=&quot;box-sizing: border-box&quot;&gt;&lt;code style=&quot;box-sizing: border-box ; font-size: 13px ; color: rgb(84 , 110 , 122) ; background-color: rgb(247 , 249 , 250) ; padding: 2px 4px ; border-radius: 3px&quot;&gt;-10&lt;span style=&quot;box-sizing: border-box ; font-size: 9.75px ; line-height: 0 ; position: relative ; vertical-align: baseline ; top: -0.5em&quot;&gt;9&lt;/span&gt;&amp;nbsp;&amp;lt;= target &amp;lt;= 10&lt;span style=&quot;box-sizing: border-box ; font-size: 9.75px ; line-height: 0 ; position: relative ; vertical-align: baseline ; top: -0.5em&quot;&gt;9&lt;/span&gt;&lt;/code&gt;&lt;/li&gt;&lt;li style=&quot;box-sizing: border-box&quot;&gt;&lt;span style=&quot;box-sizing: border-box ; font-weight: bolder&quot;&gt;Only one valid answer exists.&lt;/span&gt;&lt;/li&gt;&lt;/ul&gt;&lt;p style=&quot;box-sizing: border-box ; font-size: 14px ; margin-top: 0px ; margin-bottom: 1em ; color: rgb(38 , 50 , 56) ; font-family: , &amp;#34;blinkmacsystemfont&amp;#34; , &amp;#34;segoe ui&amp;#34; , &amp;#34;pingfang sc&amp;#34; , &amp;#34;hiragino sans gb&amp;#34; , &amp;#34;microsoft yahei&amp;#34; , &amp;#34;helvetica neue&amp;#34; , &amp;#34;helvetica&amp;#34; , &amp;#34;arial&amp;#34; , sans-serif , &amp;#34;apple color emoji&amp;#34; , &amp;#34;segoe ui emoji&amp;#34; , &amp;#34;segoe ui symbol&amp;#34; ; background-color: rgb(255 , 255 , 255)&quot;&gt;&amp;nbsp;&lt;/p&gt;&lt;p&gt;&lt;span style=&quot;box-sizing: border-box ; font-weight: bolder ; color: rgb(38 , 50 , 56) ; font-family: , &amp;#34;blinkmacsystemfont&amp;#34; , &amp;#34;segoe ui&amp;#34; , &amp;#34;pingfang sc&amp;#34; , &amp;#34;hiragino sans gb&amp;#34; , &amp;#34;microsoft yahei&amp;#34; , &amp;#34;helvetica neue&amp;#34; , &amp;#34;helvetica&amp;#34; , &amp;#34;arial&amp;#34; , sans-serif , &amp;#34;apple color emoji&amp;#34; , &amp;#34;segoe ui emoji&amp;#34; , &amp;#34;segoe ui symbol&amp;#34; ; font-size: 14px ; background-color: rgb(255 , 255 , 255)&quot;&gt;Follow-up:&amp;nbsp;&lt;/span&gt;&lt;span style=&quot;color: rgb(38 , 50 , 56) ; font-family: , &amp;#34;blinkmacsystemfont&amp;#34; , &amp;#34;segoe ui&amp;#34; , &amp;#34;pingfang sc&amp;#34; , &amp;#34;hiragino sans gb&amp;#34; , &amp;#34;microsoft yahei&amp;#34; , &amp;#34;helvetica neue&amp;#34; , &amp;#34;helvetica&amp;#34; , &amp;#34;arial&amp;#34; , sans-serif , &amp;#34;apple color emoji&amp;#34; , &amp;#34;segoe ui emoji&amp;#34; , &amp;#34;segoe ui symbol&amp;#34; ; font-size: 14px ; background-color: rgb(255 , 255 , 255)&quot;&gt;Can you come up with an algorithm that is less than&amp;nbsp;&lt;/span&gt;&lt;code style=&quot;box-sizing: border-box ; font-size: 13px ; color: rgb(84 , 110 , 122) ; background-color: rgb(247 , 249 , 250) ; padding: 2px 4px ; border-radius: 3px&quot;&gt;O(n&lt;span style=&quot;box-sizing: border-box ; font-size: 9.75px ; line-height: 0 ; position: relative ; vertical-align: baseline ; top: -0.5em&quot;&gt;2&lt;/span&gt;)&amp;nbsp;&lt;/code&gt;&lt;span style=&quot;color: rgb(38 , 50 , 56) ; font-family: , &amp;#34;blinkmacsystemfont&amp;#34; , &amp;#34;segoe ui&amp;#34; , &amp;#34;pingfang sc&amp;#34; , &amp;#34;hiragino sans gb&amp;#34; , &amp;#34;microsoft yahei&amp;#34; , &amp;#34;helvetica neue&amp;#34; , &amp;#34;helvetica&amp;#34; , &amp;#34;arial&amp;#34; , sans-serif , &amp;#34;apple color emoji&amp;#34; , &amp;#34;segoe ui emoji&amp;#34; , &amp;#34;segoe ui symbol&amp;#34; ; font-size: 14px ; background-color: rgb(255 , 255 , 255)&quot;&gt;time complexity?&lt;/span&gt;&lt;br&gt;&lt;/p&gt;" style="text;html=1;strokeColor=none;fillColor=none;spacing=5;spacingTop=-29;whiteSpace=wrap;overflow=hidden;rounded=0;spacingLeft=0;spacingBottom=0;spacingRight=0;" parent="1" vertex="1"><mxGeometry x="120" y="140" width="800" height="730" as="geometry"/></mxCell></root></mxGraphModel></diagram><diagram id="8fDH00VN4XVu_BNRP9Dv" name="Requirements"><mxGraphModel dx="1748" dy="843" grid="1" gridSize="10" guides="1" tooltips="1" connect="1" arrows="1" fold="1" page="1" pageScale="1" pageWidth="850" pageHeight="1100" math="0" shadow="0"><root><mxCell id="4zMQ5vF5pb8kCvH4uofX-0"/><mxCell id="4zMQ5vF5pb8kCvH4uofX-1" parent="4zMQ5vF5pb8kCvH4uofX-0"/><mxCell id="2faauFwrrB6IHXT0-LsJ-0" value="" style="shape=table;html=1;whiteSpace=wrap;startSize=0;container=1;collapsible=0;childLayout=tableLayout;fontFamily=Radio Canada;fontSource=https%3A%2F%2Ffonts.googleapis.com%2Fcss%3Ffamily%3DRadio%2BCanada;fontSize=20;fontColor=#CC0000;fontStyle=1" parent="4zMQ5vF5pb8kCvH4uofX-1" vertex="1"><mxGeometry x="140" y="90" width="480" height="40" as="geometry"/></mxCell><mxCell id="2faauFwrrB6IHXT0-LsJ-1" value="" style="shape=partialRectangle;html=1;whiteSpace=wrap;collapsible=0;dropTarget=0;pointerEvents=0;fillColor=none;top=0;left=0;bottom=0;right=0;points=[[0,0.5],[1,0.5]];portConstraint=eastwest;fontFamily=Radio Canada;fontSource=https%3A%2F%2Ffonts.googleapis.com%2Fcss%3Ffamily%3DRadio%2BCanada;fontSize=20;fontColor=#CC0000;fontStyle=1" parent="2faauFwrrB6IHXT0-LsJ-0" vertex="1"><mxGeometry width="480" height="40" as="geometry"/></mxCell><mxCell id="2faauFwrrB6IHXT0-LsJ-2" value="2" style="shape=partialRectangle;html=1;whiteSpace=wrap;connectable=0;fillColor=none;top=0;left=0;bottom=0;right=0;overflow=hidden;pointerEvents=1;fontFamily=Radio Canada;fontSource=https%3A%2F%2Ffonts.googleapis.com%2Fcss%3Ffamily%3DRadio%2BCanada;fontSize=20;fontColor=#CC0000;fontStyle=1" parent="2faauFwrrB6IHXT0-LsJ-1" vertex="1"><mxGeometry width="60" height="40" as="geometry"><mxRectangle width="60" height="40" as="alternateBounds"/></mxGeometry></mxCell><mxCell id="2faauFwrrB6IHXT0-LsJ-3" value="7" style="shape=partialRectangle;html=1;whiteSpace=wrap;connectable=0;fillColor=none;top=0;left=0;bottom=0;right=0;overflow=hidden;pointerEvents=1;fontFamily=Radio Canada;fontSource=https%3A%2F%2Ffonts.googleapis.com%2Fcss%3Ffamily%3DRadio%2BCanada;fontSize=20;fontColor=#CC0000;fontStyle=1" parent="2faauFwrrB6IHXT0-LsJ-1" vertex="1"><mxGeometry x="60" width="60" height="40" as="geometry"><mxRectangle width="60" height="40" as="alternateBounds"/></mxGeometry></mxCell><mxCell id="2faauFwrrB6IHXT0-LsJ-4" value="6" style="shape=partialRectangle;html=1;whiteSpace=wrap;connectable=0;fillColor=none;top=0;left=0;bottom=0;right=0;overflow=hidden;pointerEvents=1;fontFamily=Radio Canada;fontSource=https%3A%2F%2Ffonts.googleapis.com%2Fcss%3Ffamily%3DRadio%2BCanada;fontSize=20;fontColor=#CC0000;fontStyle=1" parent="2faauFwrrB6IHXT0-LsJ-1" vertex="1"><mxGeometry x="120" width="60" height="40" as="geometry"><mxRectangle width="60" height="40" as="alternateBounds"/></mxGeometry></mxCell><mxCell id="2faauFwrrB6IHXT0-LsJ-13" value="1" style="shape=partialRectangle;html=1;whiteSpace=wrap;connectable=0;fillColor=none;top=0;left=0;bottom=0;right=0;overflow=hidden;pointerEvents=1;fontFamily=Radio Canada;fontSource=https%3A%2F%2Ffonts.googleapis.com%2Fcss%3Ffamily%3DRadio%2BCanada;fontSize=20;fontColor=#CC0000;fontStyle=1" parent="2faauFwrrB6IHXT0-LsJ-1" vertex="1"><mxGeometry x="180" width="60" height="40" as="geometry"><mxRectangle width="60" height="40" as="alternateBounds"/></mxGeometry></mxCell><mxCell id="2faauFwrrB6IHXT0-LsJ-14" value="3" style="shape=partialRectangle;html=1;whiteSpace=wrap;connectable=0;fillColor=none;top=0;left=0;bottom=0;right=0;overflow=hidden;pointerEvents=1;fontFamily=Radio Canada;fontSource=https%3A%2F%2Ffonts.googleapis.com%2Fcss%3Ffamily%3DRadio%2BCanada;fontSize=20;fontColor=#CC0000;fontStyle=1" parent="2faauFwrrB6IHXT0-LsJ-1" vertex="1"><mxGeometry x="240" width="60" height="40" as="geometry"><mxRectangle width="60" height="40" as="alternateBounds"/></mxGeometry></mxCell><mxCell id="2faauFwrrB6IHXT0-LsJ-15" value="4" style="shape=partialRectangle;html=1;whiteSpace=wrap;connectable=0;fillColor=none;top=0;left=0;bottom=0;right=0;overflow=hidden;pointerEvents=1;fontFamily=Radio Canada;fontSource=https%3A%2F%2Ffonts.googleapis.com%2Fcss%3Ffamily%3DRadio%2BCanada;fontSize=20;fontColor=#CC0000;fontStyle=1" parent="2faauFwrrB6IHXT0-LsJ-1" vertex="1"><mxGeometry x="300" width="60" height="40" as="geometry"><mxRectangle width="60" height="40" as="alternateBounds"/></mxGeometry></mxCell><mxCell id="2faauFwrrB6IHXT0-LsJ-16" value="9" style="shape=partialRectangle;html=1;whiteSpace=wrap;connectable=0;fillColor=none;top=0;left=0;bottom=0;right=0;overflow=hidden;pointerEvents=1;fontFamily=Radio Canada;fontSource=https%3A%2F%2Ffonts.googleapis.com%2Fcss%3Ffamily%3DRadio%2BCanada;fontSize=20;fontColor=#CC0000;fontStyle=1" parent="2faauFwrrB6IHXT0-LsJ-1" vertex="1"><mxGeometry x="360" width="60" height="40" as="geometry"><mxRectangle width="60" height="40" as="alternateBounds"/></mxGeometry></mxCell><mxCell id="2faauFwrrB6IHXT0-LsJ-17" value="5" style="shape=partialRectangle;html=1;whiteSpace=wrap;connectable=0;fillColor=none;top=0;left=0;bottom=0;right=0;overflow=hidden;pointerEvents=1;fontFamily=Radio Canada;fontSource=https%3A%2F%2Ffonts.googleapis.com%2Fcss%3Ffamily%3DRadio%2BCanada;fontSize=20;fontColor=#CC0000;fontStyle=1" parent="2faauFwrrB6IHXT0-LsJ-1" vertex="1"><mxGeometry x="420" width="60" height="40" as="geometry"><mxRectangle width="60" height="40" as="alternateBounds"/></mxGeometry></mxCell><mxCell id="MmtJ2nF-OQQSK0y8GNGk-22" style="edgeStyle=none;html=1;entryX=0;entryY=0.5;entryDx=0;entryDy=0;fontFamily=Radio Canada;fontSource=https%3A%2F%2Ffonts.googleapis.com%2Fcss%3Ffamily%3DRadio%2BCanada;fontSize=20;fontColor=#CC0000;strokeColor=#CC0000;" parent="4zMQ5vF5pb8kCvH4uofX-1" source="2faauFwrrB6IHXT0-LsJ-18" target="MmtJ2nF-OQQSK0y8GNGk-13" edge="1"><mxGeometry relative="1" as="geometry"/></mxCell><mxCell id="MmtJ2nF-OQQSK0y8GNGk-23" value="&amp;nbsp;return indices&amp;nbsp;" style="edgeLabel;html=1;align=center;verticalAlign=middle;resizable=0;points=[];fontSize=20;fontFamily=Radio Canada;fontColor=#CC0000;" parent="MmtJ2nF-OQQSK0y8GNGk-22" vertex="1" connectable="0"><mxGeometry x="-0.2167" y="3" relative="1" as="geometry"><mxPoint x="20" as="offset"/></mxGeometry></mxCell><mxCell id="2faauFwrrB6IHXT0-LsJ-18" value="16" style="ellipse;whiteSpace=wrap;html=1;aspect=fixed;fontFamily=Radio Canada;fontSource=https%3A%2F%2Ffonts.googleapis.com%2Fcss%3Ffamily%3DRadio%2BCanada;fontSize=20;fontColor=#CC0000;fontStyle=1" parent="4zMQ5vF5pb8kCvH4uofX-1" vertex="1"><mxGeometry x="340" y="190" width="80" height="80" as="geometry"/></mxCell><mxCell id="MmtJ2nF-OQQSK0y8GNGk-0" style="edgeStyle=none;html=1;entryX=0;entryY=0.5;entryDx=0;entryDy=0;fontFamily=Radio Canada;fontSource=https%3A%2F%2Ffonts.googleapis.com%2Fcss%3Ffamily%3DRadio%2BCanada;fontSize=20;fontColor=#CC0000;strokeColor=#CC0000;fontStyle=1" parent="4zMQ5vF5pb8kCvH4uofX-1" source="2faauFwrrB6IHXT0-LsJ-19" target="2faauFwrrB6IHXT0-LsJ-1" edge="1"><mxGeometry relative="1" as="geometry"/></mxCell><mxCell id="MmtJ2nF-OQQSK0y8GNGk-11" style="edgeStyle=none;html=1;fontFamily=Radio Canada;fontSource=https%3A%2F%2Ffonts.googleapis.com%2Fcss%3Ffamily%3DRadio%2BCanada;fontSize=20;fontColor=#CC0000;strokeColor=#CC0000;entryX=0;entryY=0.5;entryDx=0;entryDy=0;fontStyle=1" parent="4zMQ5vF5pb8kCvH4uofX-1" source="2faauFwrrB6IHXT0-LsJ-19" target="MmtJ2nF-OQQSK0y8GNGk-3" edge="1"><mxGeometry relative="1" as="geometry"><Array as="points"><mxPoint x="-230" y="270"/></Array></mxGeometry></mxCell><mxCell id="2faauFwrrB6IHXT0-LsJ-19" value="nums" style="ellipse;shape=cloud;whiteSpace=wrap;html=1;fontFamily=Radio Canada;fontSource=https%3A%2F%2Ffonts.googleapis.com%2Fcss%3Ffamily%3DRadio%2BCanada;fontSize=20;fontColor=#CC0000;fontStyle=1" parent="4zMQ5vF5pb8kCvH4uofX-1" vertex="1"><mxGeometry x="-80" y="70" width="120" height="80" as="geometry"/></mxCell><mxCell id="MmtJ2nF-OQQSK0y8GNGk-2" style="edgeStyle=none;html=1;entryX=0;entryY=0.5;entryDx=0;entryDy=0;fontFamily=Radio Canada;fontSource=https%3A%2F%2Ffonts.googleapis.com%2Fcss%3Ffamily%3DRadio%2BCanada;fontSize=20;fontColor=#CC0000;strokeColor=#CC0000;fontStyle=1" parent="4zMQ5vF5pb8kCvH4uofX-1" source="MmtJ2nF-OQQSK0y8GNGk-1" target="2faauFwrrB6IHXT0-LsJ-18" edge="1"><mxGeometry relative="1" as="geometry"/></mxCell><mxCell id="MmtJ2nF-OQQSK0y8GNGk-1" value="target" style="ellipse;shape=cloud;whiteSpace=wrap;html=1;fontFamily=Radio Canada;fontSource=https%3A%2F%2Ffonts.googleapis.com%2Fcss%3Ffamily%3DRadio%2BCanada;fontSize=20;fontColor=#CC0000;fontStyle=1" parent="4zMQ5vF5pb8kCvH4uofX-1" vertex="1"><mxGeometry x="-80" y="190" width="120" height="80" as="geometry"/></mxCell><mxCell id="MmtJ2nF-OQQSK0y8GNGk-8" style="edgeStyle=none;html=1;entryX=0;entryY=0.5;entryDx=0;entryDy=0;fontFamily=Radio Canada;fontSource=https%3A%2F%2Ffonts.googleapis.com%2Fcss%3Ffamily%3DRadio%2BCanada;fontSize=20;fontColor=#CC0000;strokeColor=#CC0000;fontStyle=1" parent="4zMQ5vF5pb8kCvH4uofX-1" source="MmtJ2nF-OQQSK0y8GNGk-3" target="MmtJ2nF-OQQSK0y8GNGk-5" edge="1"><mxGeometry relative="1" as="geometry"/></mxCell><mxCell id="MmtJ2nF-OQQSK0y8GNGk-3" value="num[1]" style="shape=step;perimeter=stepPerimeter;whiteSpace=wrap;html=1;fixedSize=1;fontFamily=Radio Canada;fontSource=https%3A%2F%2Ffonts.googleapis.com%2Fcss%3Ffamily%3DRadio%2BCanada;fontSize=20;fontColor=#CC0000;fontStyle=1" parent="4zMQ5vF5pb8kCvH4uofX-1" vertex="1"><mxGeometry x="10" y="360" width="120" height="80" as="geometry"/></mxCell><mxCell id="MmtJ2nF-OQQSK0y8GNGk-10" style="edgeStyle=none;html=1;entryX=0;entryY=0.5;entryDx=0;entryDy=0;fontFamily=Radio Canada;fontSource=https%3A%2F%2Ffonts.googleapis.com%2Fcss%3Ffamily%3DRadio%2BCanada;fontSize=20;fontColor=#CC0000;strokeColor=#CC0000;fontStyle=1" parent="4zMQ5vF5pb8kCvH4uofX-1" source="MmtJ2nF-OQQSK0y8GNGk-4" target="MmtJ2nF-OQQSK0y8GNGk-6" edge="1"><mxGeometry relative="1" as="geometry"/></mxCell><mxCell id="MmtJ2nF-OQQSK0y8GNGk-4" value="num[6]" style="shape=step;perimeter=stepPerimeter;whiteSpace=wrap;html=1;fixedSize=1;fontFamily=Radio Canada;fontSource=https%3A%2F%2Ffonts.googleapis.com%2Fcss%3Ffamily%3DRadio%2BCanada;fontSize=20;fontColor=#CC0000;fontStyle=1" parent="4zMQ5vF5pb8kCvH4uofX-1" vertex="1"><mxGeometry x="200" y="360" width="120" height="80" as="geometry"/></mxCell><mxCell id="MmtJ2nF-OQQSK0y8GNGk-9" style="edgeStyle=none;html=1;entryX=0;entryY=0.5;entryDx=0;entryDy=0;fontFamily=Radio Canada;fontSource=https%3A%2F%2Ffonts.googleapis.com%2Fcss%3Ffamily%3DRadio%2BCanada;fontSize=20;fontColor=#CC0000;strokeColor=#CC0000;fontStyle=1" parent="4zMQ5vF5pb8kCvH4uofX-1" source="MmtJ2nF-OQQSK0y8GNGk-5" target="MmtJ2nF-OQQSK0y8GNGk-4" edge="1"><mxGeometry relative="1" as="geometry"/></mxCell><mxCell id="MmtJ2nF-OQQSK0y8GNGk-5" value="+" style="ellipse;whiteSpace=wrap;html=1;aspect=fixed;fontFamily=Radio Canada;fontSource=https%3A%2F%2Ffonts.googleapis.com%2Fcss%3Ffamily%3DRadio%2BCanada;fontSize=20;fontColor=#CC0000;fontStyle=1" parent="4zMQ5vF5pb8kCvH4uofX-1" vertex="1"><mxGeometry x="160" y="385" width="30" height="30" as="geometry"/></mxCell><mxCell id="MmtJ2nF-OQQSK0y8GNGk-7" style="edgeStyle=none;html=1;fontFamily=Radio Canada;fontSource=https%3A%2F%2Ffonts.googleapis.com%2Fcss%3Ffamily%3DRadio%2BCanada;fontSize=20;fontColor=#CC0000;strokeColor=#CC0000;fontStyle=1" parent="4zMQ5vF5pb8kCvH4uofX-1" source="MmtJ2nF-OQQSK0y8GNGk-6" target="2faauFwrrB6IHXT0-LsJ-18" edge="1"><mxGeometry relative="1" as="geometry"><Array as="points"><mxPoint x="490" y="400"/></Array></mxGeometry></mxCell><mxCell id="MmtJ2nF-OQQSK0y8GNGk-6" value="=" style="ellipse;whiteSpace=wrap;html=1;aspect=fixed;fontFamily=Radio Canada;fontSource=https%3A%2F%2Ffonts.googleapis.com%2Fcss%3Ffamily%3DRadio%2BCanada;fontSize=20;fontColor=#CC0000;fontStyle=1" parent="4zMQ5vF5pb8kCvH4uofX-1" vertex="1"><mxGeometry x="360" y="385" width="30" height="30" as="geometry"/></mxCell><mxCell id="MmtJ2nF-OQQSK0y8GNGk-12" value="" style="shape=table;html=1;whiteSpace=wrap;startSize=0;container=1;collapsible=0;childLayout=tableLayout;fontFamily=Radio Canada;fontSource=https%3A%2F%2Ffonts.googleapis.com%2Fcss%3Ffamily%3DRadio%2BCanada;fontSize=20;fontColor=#CC0000;fontStyle=1" parent="4zMQ5vF5pb8kCvH4uofX-1" vertex="1"><mxGeometry x="600" y="210" width="120" height="40" as="geometry"/></mxCell><mxCell id="MmtJ2nF-OQQSK0y8GNGk-13" value="" style="shape=partialRectangle;html=1;whiteSpace=wrap;collapsible=0;dropTarget=0;pointerEvents=0;fillColor=none;top=0;left=0;bottom=0;right=0;points=[[0,0.5],[1,0.5]];portConstraint=eastwest;fontFamily=Radio Canada;fontSource=https%3A%2F%2Ffonts.googleapis.com%2Fcss%3Ffamily%3DRadio%2BCanada;fontSize=20;fontColor=#CC0000;fontStyle=1" parent="MmtJ2nF-OQQSK0y8GNGk-12" vertex="1"><mxGeometry width="120" height="40" as="geometry"/></mxCell><mxCell id="MmtJ2nF-OQQSK0y8GNGk-14" value="1" style="shape=partialRectangle;html=1;whiteSpace=wrap;connectable=0;fillColor=none;top=0;left=0;bottom=0;right=0;overflow=hidden;pointerEvents=1;fontFamily=Radio Canada;fontSource=https%3A%2F%2Ffonts.googleapis.com%2Fcss%3Ffamily%3DRadio%2BCanada;fontSize=20;fontColor=#CC0000;fontStyle=1" parent="MmtJ2nF-OQQSK0y8GNGk-13" vertex="1"><mxGeometry width="60" height="40" as="geometry"><mxRectangle width="60" height="40" as="alternateBounds"/></mxGeometry></mxCell><mxCell id="MmtJ2nF-OQQSK0y8GNGk-15" value="6" style="shape=partialRectangle;html=1;whiteSpace=wrap;connectable=0;fillColor=none;top=0;left=0;bottom=0;right=0;overflow=hidden;pointerEvents=1;fontFamily=Radio Canada;fontSource=https%3A%2F%2Ffonts.googleapis.com%2Fcss%3Ffamily%3DRadio%2BCanada;fontSize=20;fontColor=#CC0000;fontStyle=1" parent="MmtJ2nF-OQQSK0y8GNGk-13" vertex="1"><mxGeometry x="60" width="60" height="40" as="geometry"><mxRectangle width="60" height="40" as="alternateBounds"/></mxGeometry></mxCell></root></mxGraphModel></diagram></mxfile>